<?xml version="1.0" encoding="us-ascii" standalone="no"?><svg xmlns="http://www.w3.org/2000/svg" xmlns:xlink="http://www.w3.org/1999/xlink" contentStyleType="text/css" height="980px" preserveAspectRatio="none" style="width:268px;height:980px;background:#FFFFFF;" version="1.1" viewBox="0 0 268 980" width="268px" zoomAndPan="magnify"><defs/><g><!--cluster Monolith--><g id="cluster_Monolith"><polygon fill="none" points="16,16,26,6,251,6,251,953.91,241,963.91,16,963.91,16,16" style="stroke:#181818;stroke-width:1.0;"/><line style="stroke:#181818;stroke-width:1.0;" x1="241" x2="251" y1="16" y2="6"/><line style="stroke:#181818;stroke-width:1.0;" x1="16" x2="241" y1="16" y2="16"/><line style="stroke:#181818;stroke-width:1.0;" x1="241" x2="241" y1="16" y2="963.91"/><text fill="#000000" font-family="sans-serif" font-size="14" font-weight="bold" lengthAdjust="spacing" textLength="65" x="97" y="32.5352">Monolith</text></g><!--entity webapp--><g id="elem_webapp"><rect fill="#FFC0CB" height="62.9766" rx="2.5" ry="2.5" style="stroke:#181818;stroke-width:0.5;" width="119" x="87.5" y="46"/><rect fill="#FFC0CB" height="10" style="stroke:#181818;stroke-width:0.5;" width="15" x="186.5" y="51"/><rect fill="#FFC0CB" height="2" style="stroke:#181818;stroke-width:0.5;" width="4" x="184.5" y="53"/><rect fill="#FFC0CB" height="2" style="stroke:#181818;stroke-width:0.5;" width="4" x="184.5" y="57"/><text fill="#000000" font-family="sans-serif" font-size="14" font-style="italic" lengthAdjust="spacing" textLength="79" x="102.5" y="79.5352">&#171;web layer&#187;</text><text fill="#000000" font-family="sans-serif" font-size="14" lengthAdjust="spacing" textLength="54" x="115" y="96.0234">webapp</text></g><!--entity HTTP--><g id="elem_HTTP"><ellipse cx="110" cy="214.98" fill="#F1F1F1" rx="8" ry="8" style="stroke:#181818;stroke-width:0.5;"/><text fill="#000000" font-family="sans-serif" font-size="14" lengthAdjust="spacing" textLength="36" x="92" y="245.5152">HTTP</text></g><!--entity Interface1--><g id="elem_Interface1"><ellipse cx="226" cy="336.47" fill="#F1F1F1" rx="8" ry="8" style="stroke:#181818;stroke-width:0.5;"/><text fill="#000000" font-family="sans-serif" font-size="14" lengthAdjust="spacing" textLength="69" x="191.5" y="367.0052">Interface1</text></g><!--entity service--><g id="elem_service"><rect fill="#ADD8E6" height="62.9766" rx="2.5" ry="2.5" style="stroke:#181818;stroke-width:0.5;" width="151" x="31.5" y="304.98"/><rect fill="#ADD8E6" height="10" style="stroke:#181818;stroke-width:0.5;" width="15" x="162.5" y="309.98"/><rect fill="#ADD8E6" height="2" style="stroke:#181818;stroke-width:0.5;" width="4" x="160.5" y="311.98"/><rect fill="#ADD8E6" height="2" style="stroke:#181818;stroke-width:0.5;" width="4" x="160.5" y="315.98"/><text fill="#000000" font-family="sans-serif" font-size="14" font-style="italic" lengthAdjust="spacing" textLength="111" x="46.5" y="338.5152">&#171;business layer&#187;</text><text fill="#000000" font-family="sans-serif" font-size="14" lengthAdjust="spacing" textLength="47" x="78.5" y="355.0034">service</text></g><!--entity Interface2--><g id="elem_Interface2"><ellipse cx="112" cy="473.96" fill="#F1F1F1" rx="8" ry="8" style="stroke:#181818;stroke-width:0.5;"/><text fill="#000000" font-family="sans-serif" font-size="14" lengthAdjust="spacing" textLength="69" x="77.5" y="504.4952">Interface2</text></g><!--entity Data Access--><g id="elem_Data Access"><rect fill="#90EE90" height="62.9766" rx="2.5" ry="2.5" style="stroke:#181818;stroke-width:0.5;" width="169" x="31.5" y="563.96"/><rect fill="#90EE90" height="10" style="stroke:#181818;stroke-width:0.5;" width="15" x="180.5" y="568.96"/><rect fill="#90EE90" height="2" style="stroke:#181818;stroke-width:0.5;" width="4" x="178.5" y="570.96"/><rect fill="#90EE90" height="2" style="stroke:#181818;stroke-width:0.5;" width="4" x="178.5" y="574.96"/><text fill="#000000" font-family="sans-serif" font-size="14" font-style="italic" lengthAdjust="spacing" textLength="129" x="46.5" y="597.4952">&#171;persistence layer&#187;</text><text fill="#000000" font-family="sans-serif" font-size="14" lengthAdjust="spacing" textLength="81" x="70.5" y="613.9834">Data Access</text></g><!--entity JDBC--><g id="elem_JDBC"><ellipse cx="116" cy="732.93" fill="#F1F1F1" rx="8" ry="8" style="stroke:#181818;stroke-width:0.5;"/><text fill="#000000" font-family="sans-serif" font-size="14" lengthAdjust="spacing" textLength="32" x="100" y="763.4652">JDBC</text></g><!--entity PostgreSQL--><g id="elem_PostgreSQL"><rect fill="#F1F1F1" height="62.9766" rx="2.5" ry="2.5" style="stroke:#181818;stroke-width:0.5;" width="118" x="57" y="884.93"/><rect fill="#F1F1F1" height="10" style="stroke:#181818;stroke-width:0.5;" width="15" x="155" y="889.93"/><rect fill="#F1F1F1" height="2" style="stroke:#181818;stroke-width:0.5;" width="4" x="153" y="891.93"/><rect fill="#F1F1F1" height="2" style="stroke:#181818;stroke-width:0.5;" width="4" x="153" y="895.93"/><text fill="#000000" font-family="sans-serif" font-size="14" font-style="italic" lengthAdjust="spacing" textLength="76" x="73" y="918.4652">&#171;database&#187;</text><text fill="#000000" font-family="sans-serif" font-size="14" lengthAdjust="spacing" textLength="78" x="72" y="934.9534">PostgreSQL</text></g><!--link webapp to HTTP--><g id="link_webapp_HTTP"><path d="M138.6,109.24 C130.76,137.95 119.43,179.44 113.67,200.55 " fill="none" id="webapp-to-HTTP" style="stroke:#181818;stroke-width:1.0;stroke-dasharray:7.0,7.0;"/><polygon fill="#181818" points="112.13,205.18,118.3533,197.5465,113.4432,200.3555,110.6341,195.4454,112.13,205.18" style="stroke:#181818;stroke-width:1.0;"/><text fill="#000000" font-family="sans-serif" font-size="13" lengthAdjust="spacing" textLength="22" x="130" y="152.5484">use</text></g><!--link webapp to Interface1--><g id="link_webapp_Interface1"><path d="M156.45,109.23 C173.7,165.36 209.65,282.29 221.85,321.96 " fill="none" id="webapp-to-Interface1" style="stroke:#181818;stroke-width:1.0;stroke-dasharray:7.0,7.0;"/><polygon fill="#181818" points="223.47,326.24,224.6402,316.4609,221.9966,321.462,216.9954,318.8184,223.47,326.24" style="stroke:#181818;stroke-width:1.0;"/><text fill="#000000" font-family="sans-serif" font-size="13" lengthAdjust="spacing" textLength="22" x="198" y="220.0484">use</text></g><!--reverse link HTTP to service--><g id="link_HTTP_service"><path d="M109.66,229.35 C109.21,247.43 108.39,280.2 107.78,304.56 " fill="none" id="HTTP-backto-service" style="stroke:#181818;stroke-width:1.0;"/><polygon fill="#181818" points="109.8,224.82,105.57,233.7142,109.6715,229.8183,113.5673,233.9198,109.8,224.82" style="stroke:#181818;stroke-width:1.0;"/></g><!--link service to Interface1--><g id="link_service_Interface1"><path d="M182.77,336.47 C192.09,336.47 201.42,336.47 210.74,336.47 " fill="none" id="service-to-Interface1" style="stroke:#181818;stroke-width:1.0;"/><polygon fill="#181818" points="215.54,336.47,206.54,332.47,210.54,336.47,206.54,340.47,215.54,336.47" style="stroke:#181818;stroke-width:1.0;"/></g><!--link service to Interface2--><g id="link_service_Interface2"><path d="M108.13,368.21 C109.19,396.8 110.71,438.06 111.49,459.26 " fill="none" id="service-to-Interface2" style="stroke:#181818;stroke-width:1.0;stroke-dasharray:7.0,7.0;"/><polygon fill="#181818" points="111.71,464.15,115.3732,455.0077,111.5244,459.1534,107.3787,455.3047,111.71,464.15" style="stroke:#181818;stroke-width:1.0;"/><text fill="#000000" font-family="sans-serif" font-size="13" lengthAdjust="spacing" textLength="22" x="110" y="411.5284">use</text></g><!--reverse link Interface2 to Data Access--><g id="link_Interface2_Data Access"><path d="M112.45,488.33 C113.05,506.41 114.15,539.18 114.97,563.54 " fill="none" id="Interface2-backto-Data Access" style="stroke:#181818;stroke-width:1.0;"/><polygon fill="#181818" points="112.26,483.8,108.5447,492.9212,112.4171,488.7975,116.5407,492.6699,112.26,483.8" style="stroke:#181818;stroke-width:1.0;"/></g><!--link Data Access to JDBC--><g id="link_Data Access_JDBC"><path d="M116,627.19 C116,655.78 116,697.04 116,718.23 " fill="none" id="Data Access-to-JDBC" style="stroke:#181818;stroke-width:1.0;stroke-dasharray:7.0,7.0;"/><polygon fill="#181818" points="116,723.13,120,714.13,116,718.13,112,714.13,116,723.13" style="stroke:#181818;stroke-width:1.0;"/><text fill="#000000" font-family="sans-serif" font-size="13" lengthAdjust="spacing" textLength="22" x="117" y="670.4984">use</text></g><!--reverse link JDBC to PostgreSQL--><g id="link_JDBC_PostgreSQL"><path d="M116,747.6 C116,776.56 116,844.71 116,884.69 " fill="none" id="JDBC-backto-PostgreSQL" style="stroke:#181818;stroke-width:1.0;"/><polygon fill="#181818" points="116,742.73,112,751.73,116,747.73,120,751.73,116,742.73" style="stroke:#181818;stroke-width:1.0;"/></g><!--SRC=[TP1BJyCm48Jl-HLMxoa5n0L5aKWhyL0h1L690-BWE4jY9LbRVW0Lwd_7ngLDGl1nPtQ-MIVQx5f88nGbaA-8kBVXo3lRFVFIrEHoiGX3-daQNhdXFahE3hkHRZXAgcX7cEYaG41poCeeQoebB9PBqGgL91zGa9RkGAKfoJasqwwai9eZQ7tqhdbLcworyC-21AMvDe0CXZkt2W1Tst3XR2DGjDpKCrVm9-h5DQ9Ilf91jw4qdwVaRhlDhudLy5UwHmFgZJ8u3uRWqA3UEGCVFBvcP8YjZ0DWB2X_GTmdZ1m3_4KVlwA6aXl67DPNcFYV2LzeSWgSi7ZYmofRzbcvqAPIyFIuzgZIsGkguPVGL-D0y07H_Xi0]--></g></svg>